# xmcd
#
# Track frame offsets: 
#        150
#        24589
#        39167
#        66869
#
# Disc length: 1214 seconds
#
# Revision: 0
# Processed by: cddbd v1.5.2PL0 Copyright (c) Steve Scherf et al.
# Submitted via: ExactAudioCopy v0.95a5
#
DISCID=2904bc04
DTITLE=Shadowlord - Shadowlord Empire
DYEAR=2004
DGENRE=Black Metal
TTITLE0=Novio Magum
TTITLE1=Burn The Witches
TTITLE2=Resurrection of the Demon Warrior
TTITLE3=Chasing Destiny
EXTD=
EXTT0=
EXTT1=
EXTT2=
EXTT3=
PLAYORDER=
